<svg width="131" height="125" viewBox="0 0 131 125" fill="none" xmlns="http://www.w3.org/2000/svg">
<path d="M94.4664 46.9996C94.4663 35.5121 85.1538 26.1995 73.6663 26.1995C62.1789 26.1996 52.8664 35.5122 52.8663 46.9996C52.8663 58.4871 62.1789 67.7995 73.6663 67.7996C85.1539 67.7996 94.4664 58.4871 94.4664 46.9996ZM108.333 46.9996C108.333 66.1455 92.8122 81.6665 73.6663 81.6665C54.5205 81.6664 39 66.1454 39 46.9996C39.0001 27.8538 54.5206 12.3334 73.6663 12.3333C92.8122 12.3333 108.333 27.8538 108.333 46.9996Z" fill="#FFE51D"/>
<path d="M69.3333 117.417V102.25C69.3333 98.0615 72.2433 94.6665 75.8332 94.6665C79.4232 94.6665 82.3332 98.0615 82.3332 102.25V117.417C82.3331 121.605 79.4231 125 75.8332 125C72.2434 125 69.3334 121.605 69.3333 117.417Z" fill="#FFE51D"/>
<path d="M19.5663 -7.10041C22.4509 -9.98495 27.0717 -10.0746 30.0648 -7.37042L30.3497 -7.10041L41.1 3.6505L41.3706 3.93478C44.075 6.92785 43.9846 11.5486 41.1 14.4332C38.2154 17.3178 33.5946 17.4083 30.6015 14.7039L30.3172 14.4332L19.5663 3.68295L19.2963 3.39802C16.5921 0.404947 16.6818 -4.21587 19.5663 -7.10041Z" fill="#FFE51D"/>
<path d="M110.194 83.5273C112.598 81.1235 116.449 81.0488 118.943 83.3023L119.18 83.5273L128.139 92.4864L128.364 92.7233C130.618 95.2175 130.543 99.0682 128.139 101.472C125.735 103.876 121.884 103.951 119.39 101.698L119.153 101.472L110.194 92.5134L109.969 92.276C107.716 89.7818 107.79 85.9311 110.194 83.5273Z" fill="#FFE51D"/>
<path d="M19.5001 42.6666L19.8343 42.6749C23.2688 42.849 26 45.6888 26 49.1666C26 52.6444 23.2688 55.4843 19.8343 55.6583L19.5001 55.6666H6.49985C2.90998 55.6666 0 52.7566 0 49.1666C0 45.5767 2.90998 42.6666 6.49985 42.6666H19.5001Z" fill="#FFE51D"/>
<path d="M145.167 42.6666L145.501 42.6749C148.935 42.849 151.666 45.6888 151.666 49.1666C151.666 52.6444 148.935 55.4843 145.501 55.6583L145.167 55.6666H132.166C128.576 55.6666 125.667 52.7566 125.667 49.1666C125.667 45.5767 128.576 42.6666 132.166 42.6666H145.167Z" fill="#FFE51D"/>
<path d="M30.6017 83.3023C33.5947 81.0486 38.2155 81.1237 41.1001 83.5273C44.0777 86.0087 44.0777 90.0322 41.1001 92.5135L30.3498 101.472L30.0649 101.698C27.0718 103.951 22.451 103.876 19.5664 101.472C16.5891 98.9907 16.589 94.9677 19.5664 92.4865L30.3174 83.5273L30.6017 83.3023Z" fill="#FFE51D"/>
<path d="M119.39 -7.3704C121.884 -10.0748 125.735 -9.9848 128.139 -7.10039C130.62 -4.12277 130.62 0.7054 128.139 3.68302L119.18 14.4333L118.943 14.704C116.449 17.4081 112.598 17.3178 110.194 14.4333C107.713 11.4557 107.713 6.62811 110.194 3.65057L119.153 -7.10039L119.39 -7.3704Z" fill="#FFE51D"/>
</svg>
