<svg width="77" height="79" viewBox="0 0 77 79" fill="none" xmlns="http://www.w3.org/2000/svg">
<path d="M47.9597 39.4998C47.9596 33.6825 43.2317 28.9665 37.3996 28.9665C31.5676 28.9665 26.8397 33.6825 26.8396 39.4998C26.8396 45.3172 31.5675 50.0331 37.3996 50.0332C43.2318 50.0332 47.9597 45.3173 47.9597 39.4998ZM54.9998 39.4998C54.9998 49.1955 47.1199 57.0555 37.3996 57.0555C27.6795 57.0555 19.7998 49.1955 19.7998 39.4998C19.7999 29.8042 27.6795 21.9445 37.3996 21.9445C47.1198 21.9445 54.9997 29.8042 54.9998 39.4998Z" fill="#FFE51D"/>
<path d="M35.2002 11.5209V3.84019C35.2002 1.71925 36.6776 0 38.5002 0C40.3228 0 41.8002 1.71925 41.8002 3.84019V11.5209C41.8001 13.6418 40.3227 15.3611 38.5002 15.3611C36.6776 15.3611 35.2002 13.6418 35.2002 11.5209Z" fill="#FFE51D"/>
<path d="M35.2002 75.1597V67.479C35.2002 65.358 36.6776 63.6388 38.5002 63.6388C40.3228 63.6388 41.8002 65.358 41.8002 67.479V75.1597C41.8001 77.2806 40.3227 78.9999 38.5002 78.9999C36.6776 78.9999 35.2002 77.2806 35.2002 75.1597Z" fill="#FFE51D"/>
<path d="M9.93346 12.103C11.3979 10.6422 13.7439 10.5968 15.2634 11.9662L15.4081 12.103L20.8659 17.5473L21.0033 17.6913C22.3763 19.207 22.3304 21.547 20.8659 23.0078C19.4014 24.4686 17.0555 24.5144 15.5359 23.1449L15.3916 23.0078L9.93346 17.5638L9.79638 17.4195C8.42347 15.9038 8.469 13.5637 9.93346 12.103Z" fill="#FFE51D"/>
<path d="M55.9447 57.9979C57.1651 56.7806 59.1201 56.7427 60.3864 57.8839L60.5069 57.9979L65.0551 62.5348L65.1696 62.6548C66.3138 63.9179 66.2755 65.8679 65.0551 67.0852C63.8347 68.3026 61.8797 68.3407 60.6135 67.1995L60.4932 67.0852L55.9447 62.5485L55.8305 62.4283C54.6864 61.1652 54.7243 59.2152 55.9447 57.9979Z" fill="#FFE51D"/>
<path d="M9.90006 37.3055L10.0697 37.3097C11.8134 37.3979 13.2 38.836 13.2 40.5972C13.2 42.3584 11.8134 43.7965 10.0697 43.8847L9.90006 43.8889H3.29993C1.47738 43.8889 0 42.4152 0 40.5972C0 38.7792 1.47738 37.3055 3.29993 37.3055H9.90006Z" fill="#FFE51D"/>
<path d="M73.6999 37.3055L73.8695 37.3097C75.6132 37.3979 76.9998 38.836 76.9998 40.5972C76.9998 42.3584 75.6132 43.7965 73.8695 43.8847L73.6999 43.8889H67.0997C65.2772 43.8889 63.7998 42.4152 63.7998 40.5972C63.7998 38.7792 65.2772 37.3055 67.0997 37.3055H73.6999Z" fill="#FFE51D"/>
<path d="M15.536 57.8839C17.0555 56.7426 19.4015 56.7806 20.866 57.9979C22.3777 59.2545 22.3777 61.292 20.866 62.5486L15.4082 67.0853L15.2635 67.1995C13.7439 68.3407 11.398 68.3026 9.93351 67.0853C8.42193 65.8287 8.42188 63.7914 9.93351 62.5349L15.3917 57.9979L15.536 57.8839Z" fill="#FFE51D"/>
<path d="M60.6135 11.9662C61.8798 10.5967 63.8347 10.6423 65.0552 12.103C66.3149 13.6109 66.3149 16.0559 65.0552 17.5638L60.507 23.0079L60.3864 23.1449C59.1201 24.5143 57.1651 24.4686 55.9448 23.0079C54.6851 21.5 54.6851 19.0552 55.9448 17.5474L60.4932 12.103L60.6135 11.9662Z" fill="#FFE51D"/>
</svg>
