<svg width="69" height="69" viewBox="0 0 69 69" fill="none" xmlns="http://www.w3.org/2000/svg">
<g clip-path="url(#clip0_174_1483)">
<path d="M40.25 34.5C40.25 31.3244 37.6756 28.75 34.5 28.75C31.3244 28.75 28.75 31.3244 28.75 34.5C28.75 37.6756 31.3244 40.25 34.5 40.25C37.6756 40.25 40.25 37.6756 40.25 34.5ZM46 34.5C46 40.8513 40.8513 46 34.5 46C28.1487 46 23 40.8513 23 34.5C23 28.1487 28.1487 23 34.5 23C40.8513 23 46 28.1487 46 34.5Z" fill="#F7F7F8"/>
<path d="M37.375 8.625C37.375 7.8625 37.0719 7.13145 36.5327 6.59229C35.9935 6.05312 35.2625 5.75 34.5 5.75C33.7375 5.75 33.0065 6.05312 32.4673 6.59229C31.9281 7.13145 31.625 7.8625 31.625 8.625V9.12476C31.6191 10.6106 31.1792 12.0637 30.3588 13.3025C29.6408 14.3865 28.6583 15.2652 27.509 15.8602L27.0065 16.0989C26.7678 16.201 26.5158 16.2636 26.2596 16.2982C25.0153 16.7365 23.6758 16.8491 22.3711 16.6127C20.8732 16.3411 19.4894 15.6248 18.4011 14.5603L18.3787 14.5406L20.4114 12.5051L18.3787 14.5378L18.2074 14.3666H18.2046C17.9376 14.0993 17.6214 13.8851 17.2725 13.7405C16.9236 13.596 16.5494 13.5215 16.1719 13.5215C15.7943 13.5215 15.4201 13.596 15.0713 13.7405C14.7223 13.8851 14.4061 14.0993 14.1392 14.3666H14.1364C13.869 14.6336 13.6549 14.9525 13.5103 15.3015C13.3658 15.6503 13.2913 16.0246 13.2913 16.4021C13.2913 16.7796 13.3658 17.1539 13.5103 17.5027C13.6549 17.8516 13.8691 18.1678 14.1364 18.4348V18.4376L14.3104 18.6089L14.3329 18.6313H14.3301C15.3946 19.7196 16.1109 21.1035 16.3824 22.6013C16.6428 24.0385 16.4755 25.5156 15.9192 26.8633L15.922 26.8661C15.3943 28.3009 14.4477 29.5452 13.2042 30.4346C12.1161 31.2127 10.8453 31.6881 9.52063 31.8187L8.95068 31.8552H8.625C7.8625 31.8552 7.13145 32.1583 6.59229 32.6975C6.05319 33.2367 5.75 33.9678 5.75 34.7302C5.75006 35.4926 6.05317 36.2238 6.59229 36.7629C7.13144 37.302 7.86256 37.6052 8.625 37.6052H9.12476L9.68066 37.6277C10.9708 37.7272 12.2186 38.1536 13.3025 38.8715C14.541 39.6918 15.5137 40.8583 16.0989 42.2238H16.0961C16.7005 43.6087 16.8822 45.1416 16.6127 46.6289C16.3411 48.1268 15.6248 49.5106 14.5603 50.5989L14.5406 50.6213L12.5051 48.5886L14.5378 50.6213L14.3666 50.7926V50.7954C14.0993 51.0624 13.8851 51.3786 13.7405 51.7275C13.596 52.0764 13.5215 52.4506 13.5215 52.8281L13.5355 53.1117C13.5633 53.392 13.6323 53.6675 13.7405 53.9287C13.849 54.1905 13.9964 54.4348 14.1757 54.6531L14.3666 54.8608V54.8636L14.5771 55.0546C14.7953 55.2337 15.0398 55.3812 15.3015 55.4897C15.6503 55.6342 16.0246 55.7087 16.4021 55.7087C16.7796 55.7087 17.1539 55.6342 17.5027 55.4897C17.8516 55.3451 18.1678 55.1309 18.4348 54.8636H18.4376L18.6089 54.6896L18.6313 54.6671C19.7195 53.6028 21.1036 52.8891 22.6013 52.6176C24.0986 52.3463 25.6424 52.5312 27.0345 53.1454H27.0317C28.3962 53.6837 29.5798 54.6007 30.4346 55.7958C31.3237 57.0391 31.8195 58.5212 31.8552 60.0493V60.375C31.8552 61.1375 32.1583 61.8685 32.6975 62.4077C33.2367 62.9468 33.9678 63.25 34.7302 63.25C35.4926 63.2499 36.2238 62.9468 36.7629 62.4077C37.302 61.8686 37.6052 61.1374 37.6052 60.375V59.8752L37.6277 59.3193C37.7272 58.0292 38.1536 56.7814 38.8715 55.6975C39.5895 54.6135 40.5719 53.7347 41.7212 53.1398L42.2238 52.9011C43.6084 52.2971 45.142 52.1179 46.6289 52.3873C47.9397 52.625 49.1636 53.2014 50.1777 54.0551L50.5989 54.4397L50.6213 54.4594L48.5886 56.4949L50.6213 54.4622L50.7926 54.6334H50.7954L51.0032 54.8243C51.2214 55.0036 51.4657 55.151 51.7275 55.2595C52.0764 55.404 52.4506 55.4785 52.8281 55.4785C53.2057 55.4785 53.5799 55.404 53.9287 55.2595C54.2777 55.1149 54.5939 54.9007 54.8608 54.6334H54.8636L55.0546 54.4229C55.2337 54.2047 55.3812 53.9602 55.4897 53.6985C55.6342 53.3497 55.7087 52.9754 55.7087 52.5979C55.7087 52.2204 55.6342 51.8461 55.4897 51.4973C55.3451 51.1484 55.1309 50.8322 54.8636 50.5652V50.5624L54.6896 50.3911L54.6671 50.3687V50.3658C53.6036 49.2779 52.889 47.8957 52.6176 46.3987C52.3482 44.9117 52.5272 43.3782 53.1313 41.9935L53.37 41.491C53.965 40.3417 54.8437 39.3592 55.9277 38.6412C57.1665 37.8208 58.6196 37.3809 60.1055 37.375H60.375C61.1375 37.375 61.8685 37.0719 62.4077 36.5327C62.9469 35.9935 63.25 35.2625 63.25 34.5C63.25 33.7375 62.9469 33.0065 62.4077 32.4673C61.8685 31.9281 61.1375 31.625 60.375 31.625H59.8752C58.3894 31.6191 56.9363 31.1792 55.6975 30.3588C54.6135 29.6408 53.7348 28.6583 53.1398 27.509L52.9011 27.0065C52.7989 26.7677 52.7336 26.5159 52.699 26.2596C52.2609 25.0155 52.151 23.6755 52.3873 22.3711C52.6589 20.8732 53.3752 19.4894 54.4397 18.4011L54.4594 18.3787L56.4949 20.4114L54.4622 18.3787L54.6334 18.2074V18.2046L54.8243 17.9968C55.0036 17.7786 55.151 17.5343 55.2595 17.2725C55.404 16.9236 55.4785 16.5494 55.4785 16.1719C55.4785 15.7943 55.404 15.4201 55.2595 15.0713C55.1149 14.7223 54.9007 14.4061 54.6334 14.1392V14.1364C54.3664 13.869 54.0475 13.6549 53.6985 13.5103C53.3497 13.3658 52.9754 13.2913 52.5979 13.2913C52.2204 13.2913 51.8461 13.3658 51.4973 13.5103C51.1484 13.6549 50.8322 13.8691 50.5652 14.1364H50.5624L50.3911 14.3104L50.3687 14.3329L50.3658 14.3301C49.2777 15.3944 47.8964 16.1109 46.3987 16.3824C44.9114 16.6519 43.3784 16.4703 41.9935 15.8658V15.8687C40.628 15.2834 39.4616 14.3109 38.6412 13.0723C37.8208 11.8335 37.3809 10.3804 37.375 8.89453V8.625ZM43.125 8.87207L43.1447 9.14441C43.1852 9.41224 43.2859 9.6692 43.4366 9.89685C43.5874 10.1244 43.7843 10.3167 44.015 10.4584L44.2565 10.5819L44.2845 10.5959L44.5485 10.6886C44.8162 10.7616 45.0985 10.775 45.3739 10.7251C45.7413 10.6585 46.0812 10.4808 46.3481 10.2197L46.4969 10.0709L47.123 9.50098C47.7776 8.96339 48.5108 8.52658 49.2961 8.20105C50.343 7.76712 51.4646 7.54129 52.5979 7.54126C53.7311 7.54126 54.8528 7.76719 55.8997 8.20105C56.9467 8.6351 57.9006 9.269 58.7017 10.0709H58.6989C59.5003 10.8717 60.1377 11.8235 60.5715 12.8701C61.0052 13.9168 61.2285 15.0389 61.2285 16.1719C61.2285 17.3048 61.0052 18.427 60.5715 19.4736C60.246 20.2589 59.8064 20.9922 59.2688 21.6467L58.6989 22.2728L58.55 22.4216L58.3704 22.635C58.2076 22.8602 58.0976 23.1202 58.0475 23.3959C57.9809 23.7633 58.0231 24.1436 58.1738 24.4852L58.2805 24.7632C58.3106 24.8565 58.336 24.951 58.3563 25.0468C58.4929 25.2501 58.6668 25.4267 58.8729 25.5634C59.1768 25.7646 59.5333 25.8735 59.8977 25.875H60.375C62.6625 25.875 64.8556 26.7844 66.4731 28.4019C68.0906 30.0194 69 32.2125 69 34.5C69 36.7875 68.0906 38.9806 66.4731 40.5981C64.8556 42.2156 62.6625 43.125 60.375 43.125H60.1279L59.8556 43.1447C59.5878 43.1852 59.3308 43.2859 59.1031 43.4366C58.7999 43.6376 58.5616 43.9222 58.4181 44.2565L58.4041 44.2845C58.2533 44.6261 58.2083 45.0065 58.2749 45.3739C58.3415 45.7413 58.5192 46.0812 58.7803 46.3481L58.9291 46.4969L59.499 47.123C60.0366 47.7776 60.4734 48.5109 60.799 49.2961C61.2329 50.343 61.4587 51.4646 61.4587 52.5979C61.4587 53.7311 61.2328 54.8528 60.799 55.8997C60.3649 56.9467 59.731 57.9006 58.9291 58.7017L58.9263 58.6989C58.1257 59.4996 57.1759 60.1379 56.1299 60.5715C55.0832 61.0052 53.9611 61.2285 52.8281 61.2285C51.6952 61.2285 50.573 61.0052 49.5264 60.5715C48.7411 60.246 48.0078 59.8064 47.3533 59.2688L46.7272 58.6989L46.5784 58.55L46.365 58.3704C46.1398 58.2076 45.8798 58.0976 45.6041 58.0475C45.2367 57.9809 44.8564 58.0231 44.5148 58.1738L44.4867 58.1879C44.1524 58.3313 43.8679 58.5697 43.6669 58.8729C43.4656 59.1768 43.3567 59.5333 43.3552 59.8977V60.375C43.3552 62.6624 42.4458 64.8557 40.8284 66.4731C39.2109 68.0906 37.0176 68.9999 34.7302 69C32.4428 69 30.2496 68.0906 28.6321 66.4731C27.0146 64.8556 26.1052 62.6625 26.1052 60.375V60.1841L26.0771 59.9061C26.0292 59.6312 25.9208 59.3686 25.7571 59.1396C25.5934 58.911 25.381 58.7235 25.1366 58.5894L24.8839 58.4742L24.7155 58.4041C24.3739 58.2533 23.9935 58.2083 23.6261 58.2749C23.2587 58.3415 22.9188 58.5192 22.6519 58.7803L22.5031 58.9291C21.7022 59.7305 20.7505 60.3651 19.7039 60.799C18.657 61.2329 17.5354 61.4587 16.4021 61.4587C15.2689 61.4587 14.1472 61.2328 13.1003 60.799C12.0533 60.3649 11.0994 59.731 10.2983 58.9291V58.9263C9.49822 58.126 8.86182 57.1753 8.42847 56.1299C8.10338 55.3453 7.89678 54.5181 7.8136 53.676L7.77148 52.8281C7.77148 51.6952 7.99481 50.573 8.42847 49.5264C8.86233 48.4798 9.4997 47.528 10.3011 46.7272L10.45 46.5784C10.7109 46.3116 10.8858 45.9713 10.9525 45.6041C11.0191 45.2367 10.9769 44.8564 10.8262 44.5148L10.8121 44.4867C10.6687 44.1524 10.4303 43.8679 10.1271 43.6669C9.89949 43.5162 9.64238 43.4154 9.37463 43.3749L9.10229 43.3552H8.625C6.33756 43.3552 4.14434 42.4458 2.52686 40.8284C0.909408 39.2109 5.95398e-05 37.0176 0 34.7302C0 32.4428 0.909425 30.2496 2.52686 28.6321C4.14436 27.0146 6.33751 26.1052 8.625 26.1052H8.81592C9.19079 26.0965 9.55536 25.9752 9.86035 25.7571C10.1647 25.5393 10.3963 25.235 10.5258 24.8839L10.5959 24.7155L10.6886 24.4515C10.7616 24.1838 10.775 23.9015 10.7251 23.6261C10.6751 23.3502 10.5623 23.0906 10.3994 22.8652L10.2197 22.6519L10.0709 22.5031C9.26948 21.7022 8.63491 20.7505 8.20105 19.7039C7.76712 18.657 7.54129 17.5354 7.54126 16.4021C7.54126 15.2689 7.76719 14.1472 8.20105 13.1003C8.52654 12.3152 8.96349 11.5817 9.50098 10.9272L10.0709 10.2983C10.8714 9.49756 11.8241 8.86208 12.8701 8.42847C13.9168 7.99481 15.0389 7.77148 16.1719 7.77148C17.3048 7.77148 18.427 7.99481 19.4736 8.42847C20.5202 8.86233 21.472 9.49971 22.2728 10.3011L22.4216 10.45L22.635 10.6296C22.8602 10.7924 23.1202 10.9024 23.3959 10.9525C23.7633 11.0191 24.1436 10.9769 24.4852 10.8262L24.7632 10.7195C24.8566 10.6894 24.9508 10.6613 25.0468 10.6409C25.2496 10.5044 25.427 10.3327 25.5634 10.1271C25.7625 9.82634 25.8714 9.47405 25.875 9.11353V8.625C25.875 6.33751 26.7844 4.14436 28.4019 2.52686C30.0194 0.909355 32.2125 0 34.5 0C36.7875 0 38.9806 0.909355 40.5981 2.52686C42.2156 4.14436 43.125 6.33751 43.125 8.625V8.87207Z" fill="#F7F7F8"/>
</g>
<defs>
<clipPath id="clip0_174_1483">
<rect width="69" height="69" fill="white"/>
</clipPath>
</defs>
</svg>
